# xmcd
#
# Track frame offsets:
#	150
#	14841
#	34368
#	48881
#	68143
#	81242
#	94499
#	112819
#	127990
#	143404
#	160012
#	173266
#	187632
#	202411
#
# Disc length: 2865 seconds
# Revision: 0
# Processed by: cddbd v1.5.2PL0 Copyright (c) Steve Scherf et al.
# Submitted via: dBpowerAMP V12.0
#
DISCID=b30b2f0e
DTITLE=Various Artist - One More Ride
DYEAR=2010
DGENRE=Folk
TTITLE0=Jim Faddis - One More Ride
TTITLE1=Jim Faddis - Lake Charles
TTITLE2=Jim Faddis - Sick and Tired
TTITLE3=Jim Faddis - Slow Train
TTITLE4=Jim Faddis with Kristen Grainger - Baby Don't Go
TTITLE5=Jim Faddis - Baby Boy
TTITLE6=Jim Faddis - When You Wake Up
TTITLE7=Jim Faddis - Tell Me Once Again
TTITLE8=Jim Faddis - Connection
TTITLE9=Jim Faddis - Better Than the Rest
TTITLE10=Jim Faddis - The Way She Goes
TTITLE11=Jim Faddis - All I Ever Wanted
TTITLE12=Jim Faddis - Give Me Back My Heart
TTITLE13=Jim Faddis - Take Me Away
EXTD=
EXTT0=
EXTT1=
EXTT2=
EXTT3=
EXTT4=
EXTT5=
EXTT6=
EXTT7=
EXTT8=
EXTT9=
EXTT10=
EXTT11=
EXTT12=
EXTT13=
PLAYORDER=
